<!-- Generated by IcoMoon.io -->
<svg version="1.1" xmlns="http://www.w3.org/2000/svg" width="22" height="28" viewBox="0 0 22 28">
<title>phone</title>
<path d="M5.625 3c-0.562 0-1.656 0.25-2.172 0.484-0.766 0.328-1.266 1.203-1.656 1.906-0.5 0.922-0.797 1.859-0.797 2.906 0 1.453 0.594 2.766 1.078 4.094 0.344 0.953 0.766 1.875 1.297 2.734 1.641 2.656 4.844 5.859 7.5 7.5 0.859 0.531 1.781 0.953 2.734 1.297 1.328 0.484 2.641 1.078 4.094 1.078 1.047 0 1.984-0.297 2.906-0.797 0.703-0.391 1.578-0.891 1.906-1.656 0.234-0.516 0.484-1.609 0.484-2.172 0-0.109 0-0.219-0.047-0.328-0.109-0.328-0.875-0.672-1.188-0.828-0.891-0.5-1.797-0.984-2.672-1.5-0.406-0.25-0.906-0.719-1.391-0.719-0.953 0-2.344 2.828-3.187 2.828-0.422 0-0.969-0.391-1.344-0.609-2.844-1.578-4.813-3.547-6.391-6.391-0.219-0.375-0.609-0.922-0.609-1.344 0-0.844 2.828-2.234 2.828-3.187 0-0.484-0.469-0.984-0.719-1.391-0.516-0.875-1-1.781-1.5-2.672-0.156-0.313-0.5-1.078-0.828-1.188-0.109-0.047-0.219-0.047-0.328-0.047z"></path>
</svg>
